<svg width="33" height="33" viewBox="0 0 33 33" fill="none" xmlns="http://www.w3.org/2000/svg">
<g clip-path="url(#clip0_3296_5256)">
<path d="M16.493 18.7764C18.0676 18.7764 19.344 17.4994 19.344 15.9242C19.344 14.349 18.0676 13.072 16.493 13.072C14.9185 13.072 13.6421 14.349 13.6421 15.9242C13.6421 17.4994 14.9185 18.7764 16.493 18.7764Z" fill="#61DAFB"/>
<path d="M32.4861 15.9241C32.4861 13.6841 29.8577 11.7363 25.769 10.5676C26.7981 6.43543 26.4365 3.17978 24.4896 2.06674C22.5426 0.939779 19.5526 2.26152 16.493 5.21108C13.4335 2.2476 10.4435 0.939779 8.49652 2.06674C6.88331 2.99891 6.28531 5.36413 6.82768 8.73108C6.92503 9.32934 7.0641 9.94152 7.21708 10.5815C3.12842 11.7502 0.5 13.698 0.5 15.938C0.5 18.178 3.12842 20.112 7.21708 21.2946C7.0641 21.9206 6.92503 22.5467 6.82768 23.145C6.28531 26.512 6.88331 28.8772 8.49652 29.8093C8.96936 30.0876 9.51173 30.2267 10.1097 30.2267C11.5282 30.2267 13.2388 29.4476 15.1023 27.9311C15.5613 27.5554 16.0341 27.1241 16.493 26.6789C16.952 27.1241 17.4248 27.5554 17.8837 27.9311C19.7473 29.4476 21.4578 30.2267 22.8764 30.2267C23.4744 30.2267 24.0167 30.0876 24.4896 29.8093C26.1028 28.8772 26.7008 26.512 26.1723 23.145C26.075 22.5467 25.9359 21.9346 25.7829 21.2946C29.8716 20.1259 32.5 18.178 32.5 15.938L32.4861 15.9241ZM23.7942 3.26326C25.0458 3.98674 25.324 6.63021 24.42 10.2198C23.1128 9.91369 21.6804 9.69108 20.1645 9.55195C19.2884 8.31369 18.3705 7.18674 17.4665 6.19891C19.5804 4.15369 21.5413 3.04065 22.8903 3.04065C23.2379 3.04065 23.5439 3.11021 23.8081 3.26326H23.7942ZM20.9572 18.498C20.4565 19.3467 19.942 20.1815 19.4135 20.9606C18.4817 21.0302 17.5083 21.072 16.507 21.072C15.5056 21.072 14.5322 21.0302 13.6004 20.9606C13.0719 20.1815 12.5435 19.3467 12.0567 18.498C11.5561 17.6354 11.111 16.7867 10.6938 15.9241C11.111 15.0615 11.5561 14.2128 12.0567 13.3502C12.5574 12.4737 13.0858 11.6528 13.6004 10.8876C14.5322 10.818 15.5056 10.7763 16.507 10.7763C17.5083 10.7763 18.4817 10.818 19.4135 10.8876C19.942 11.6528 20.4565 12.4737 20.9572 13.3502C21.4439 14.1989 21.9029 15.0615 22.3201 15.9241C21.9168 16.7728 21.4718 17.6215 20.9572 18.498ZM23.0432 17.552C23.4326 18.4841 23.7664 19.3885 24.0445 20.2789C23.1545 20.4737 22.1949 20.6546 21.1797 20.7798C21.5135 20.265 21.8333 19.7363 22.1532 19.1937C22.4731 18.6511 22.7651 18.0946 23.0432 17.552ZM16.493 24.6476C15.8672 23.9659 15.2414 23.2146 14.6295 22.4076C15.2414 22.4354 15.8533 22.4493 16.493 22.4493C17.1328 22.4493 17.7447 22.4354 18.3566 22.4076C17.7447 23.2146 17.1189 23.952 16.493 24.6476ZM11.8064 20.7798C10.7912 20.6546 9.83159 20.4876 8.94155 20.2789C9.21969 19.3885 9.55345 18.4841 9.94285 17.552C10.221 18.0946 10.513 18.6511 10.8329 19.1937C11.1528 19.7363 11.4726 20.265 11.8064 20.7798ZM9.94285 14.2824C9.55345 13.3502 9.21969 12.4459 8.94155 11.5554C9.83159 11.3606 10.7912 11.1798 11.8064 11.0546C11.4726 11.5693 11.1528 12.098 10.8329 12.6406C10.513 13.1833 10.221 13.7259 9.94285 14.2824ZM16.493 7.18674C17.105 7.85456 17.7308 8.60587 18.3566 9.42674C17.7447 9.39891 17.1328 9.385 16.493 9.385C15.8533 9.385 15.2414 9.39891 14.6295 9.42674C15.2553 8.60587 15.8672 7.85456 16.493 7.18674ZM22.1532 12.6546C21.8333 12.112 21.5135 11.5833 21.1797 11.0685C22.1949 11.1937 23.1545 11.3606 24.0445 11.5693C23.7803 12.4459 23.4465 13.3502 23.0432 14.2963C22.7651 13.7537 22.4591 13.1972 22.1532 12.6546ZM8.19057 8.50847C7.75945 5.79543 8.12103 3.88934 9.19187 3.27717C9.45611 3.12413 9.76206 3.05456 10.1097 3.05456C11.4587 3.05456 13.4196 4.1676 15.5335 6.21282C14.6156 7.20065 13.7116 8.3276 12.8355 9.56587C11.3196 9.705 9.88722 9.9276 8.57996 10.2337C8.42699 9.64934 8.30183 9.065 8.21838 8.52239L8.19057 8.50847ZM1.8907 15.9241C1.8907 14.4772 4.03238 12.9189 7.59257 11.9033C7.99587 13.1972 8.52434 14.5467 9.15015 15.9241C8.52434 17.2876 7.99587 18.6372 7.59257 19.945C4.04628 18.9293 1.8907 17.385 1.8907 15.9241ZM14.2262 26.818C12.0984 28.5433 10.2627 29.1833 9.19187 28.5711C8.12103 27.9589 7.75945 26.0389 8.19057 23.3398C8.27401 22.7833 8.41308 22.2128 8.55215 21.6285C9.85941 21.9346 11.2918 22.1572 12.8077 22.2963C13.6838 23.5206 14.5878 24.6615 15.5056 25.6633C15.0745 26.0807 14.6434 26.4841 14.2123 26.832L14.2262 26.818ZM24.7955 23.3398C25.2266 26.0528 24.8651 27.9589 23.7942 28.5711C22.7234 29.1833 20.8877 28.5433 18.7599 26.818C18.3288 26.4702 17.8977 26.0667 17.4665 25.6493C18.3983 24.6476 19.3023 23.5206 20.1645 22.2963C21.6804 22.1572 23.1128 21.9346 24.42 21.6285C24.573 22.2128 24.6982 22.7972 24.7816 23.3398H24.7955ZM25.3935 19.9311C24.9902 18.6372 24.4618 17.2876 23.8359 15.9102C24.4757 14.5189 24.9902 13.1693 25.3935 11.8893C28.9537 12.905 31.0954 14.4493 31.0954 15.9102C31.0954 17.3711 28.9537 18.9154 25.3935 19.9311Z" fill="#61DAFB"/>
</g>
<defs>
<clipPath id="clip0_3296_5256">
<rect width="32" height="32" fill="white" transform="translate(0.5 0.332031)"/>
</clipPath>
</defs>
</svg>
