<svg width="903" height="100" viewBox="0 0 903 100" fill="none" xmlns="http://www.w3.org/2000/svg">
<rect x="0.5" y="0.5" width="902" height="99" rx="4.5" stroke="#9747FF" stroke-dasharray="10 5"/>
<path d="M50.04 22L76.08 31.296L72.1096 65.764L50.04 78L27.9704 65.764L24 31.296L50.04 22ZM50.04 28.188L33.7608 64.728H39.8312L43.1044 56.552H56.9196L60.1956 64.728H66.2632L50.04 28.188ZM54.7944 51.512H45.2856L50.04 40.06L54.7944 51.512Z" fill="white"/>
<path d="M150.898 26.4566C150.491 24.3174 148.835 22.5857 146.722 22.1273C146.62 22.1019 146.518 22.1019 146.391 22.0764C146.365 22.0764 146.34 22.0255 146.314 22H99.6094C99.5839 22.0255 99.5584 22.0764 99.5075 22.0764C97.3938 22.4329 95.6112 24.1137 95.1273 26.2528C95.1019 26.3292 95.0509 26.4311 95 26.533V73.3652C95.0255 73.4161 95.0764 73.4416 95.0764 73.4925C95.5857 75.8354 97.0118 77.2869 99.3292 77.8727C99.4056 77.8981 99.4566 77.9491 99.5075 78H146.391C146.442 77.9745 146.467 77.9236 146.518 77.8981C148.835 77.3633 150.261 75.9627 150.847 73.6453C150.873 73.5689 150.847 73.467 150.873 73.3906C150.873 73.3652 150.924 73.3397 150.949 73.3142V26.6094C150.949 26.5584 150.898 26.533 150.898 26.4566ZM127.469 53.0432H127.189C125.075 53.0432 122.936 53.0432 120.823 53.0432C120.721 53.0432 120.619 53.0432 120.517 53.0432C120.517 53.0687 120.492 53.0687 120.492 53.0941C120.492 53.196 120.492 53.2979 120.492 53.3997V73.0341H114.915V53.0687H107.911V48.6121H127.444V53.0432H127.469ZM146.263 66.362C146.212 67.2278 146.085 68.0682 145.729 68.8831C145.627 69.1378 145.55 69.367 145.423 69.6216C144.965 70.5894 144.201 71.2769 143.309 71.8372C142.291 72.4739 141.17 72.8304 139.999 73.0596C138.7 73.3142 137.401 73.3906 136.077 73.3397C135.44 73.3142 134.804 73.3142 134.167 73.2378C132.664 73.0596 131.187 72.7285 129.812 72.0664C129.736 72.0409 129.634 71.9136 129.634 71.8372C129.634 70.1819 129.634 68.5266 129.634 66.8713C129.634 66.8458 129.634 66.8204 129.634 66.7694C130.041 67.0496 130.449 67.3297 130.856 67.5589C131.849 68.1446 132.945 68.5521 134.065 68.8067C135.033 69.0359 136 69.0614 136.968 69.0105C137.707 68.985 138.445 68.8067 139.107 68.4757C139.693 68.1701 140.177 67.7626 140.304 67.075C140.432 66.4638 140.381 65.8527 140.024 65.3179C139.515 64.5539 138.802 64.07 138.012 63.6626C137.121 63.2296 136.23 62.8477 135.313 62.4402C133.963 61.829 132.639 61.1669 131.544 60.1483C130.653 59.3079 129.99 58.3147 129.685 57.1178C129.507 56.4047 129.456 55.6917 129.481 54.9786C129.507 53.2215 130.143 51.719 131.391 50.4711C132.41 49.4525 133.658 48.8413 135.033 48.4848C135.975 48.2556 136.917 48.0773 137.885 48.0518C138.573 48.0518 139.26 47.9754 139.922 48.0009C140.966 48.0264 141.985 48.0773 143.004 48.332C143.666 48.5102 144.353 48.6885 145.015 48.8413C145.143 48.8668 145.194 48.9432 145.194 49.096C145.194 50.6749 145.194 52.2792 145.194 53.8581C145.194 53.909 145.194 53.96 145.168 54.0364C144.965 53.909 144.786 53.8072 144.608 53.7053C143.793 53.2469 142.927 52.9413 142.036 52.7121C141.043 52.4829 140.05 52.3301 139.031 52.3556C138.343 52.3811 137.63 52.4829 136.994 52.7121C136.204 52.9923 135.568 53.4507 135.287 54.291C135.058 54.9532 135.236 55.5134 135.644 56.0482C136.153 56.7103 136.841 57.1687 137.579 57.5252C138.573 58.0091 139.591 58.4166 140.559 58.8749C141.679 59.4097 142.8 59.9445 143.742 60.734C144.557 61.4216 145.296 62.1855 145.703 63.2042C145.932 63.8154 146.136 64.452 146.136 65.1396C146.238 65.5471 146.289 65.9545 146.263 66.362Z" fill="white"/>
<path d="M168 22C186.679 22 205.321 22 224 22C224 40.6793 224 59.3585 224 78C205.359 78 186.679 78 168 78C168 59.2829 168 40.6415 168 22ZM218.101 51.6448C216.967 49.603 215.417 48.2039 213.186 47.7124C211.598 47.3342 210.009 47.3342 208.421 47.6745C203.279 48.7333 201.086 54.9345 204.413 59.056C205.585 60.4929 207.136 61.3626 208.762 62.1188C210.199 62.7995 211.673 63.4423 213.11 64.1607C214.093 64.6523 214.509 65.5598 214.396 66.6563C214.282 67.7529 213.526 68.3579 212.581 68.6982C210.463 69.4544 208.005 68.7738 206.569 66.9966C206.266 66.6185 205.964 66.2026 205.661 65.7866C204.224 66.6185 202.825 67.4126 201.426 68.2444C202.296 69.946 203.506 71.3072 205.169 72.2147C208.005 73.765 210.993 73.9919 214.055 73.2356C216.059 72.7441 217.761 71.7232 218.82 69.8704C220.786 66.3538 219.652 61.9676 216.173 59.8123C214.623 58.867 212.883 58.2242 211.257 57.3923C210.463 56.9764 209.631 56.5982 208.951 56.0689C207.741 55.0858 207.968 53.1195 209.329 52.3633C210.652 51.607 212.505 52.0608 213.526 53.3842C213.753 53.6489 213.904 53.9514 214.131 54.2539C215.417 53.3842 216.74 52.5145 218.101 51.6448ZM182.747 68.8116C183.503 70.4375 184.6 71.7232 186.15 72.555C188.154 73.6516 190.347 73.8406 192.578 73.5003C194.582 73.1978 196.246 72.2903 197.342 70.4753C198.25 68.9629 198.515 67.2991 198.515 65.5219C198.515 59.7745 198.515 54.027 198.515 48.2795C198.515 48.1283 198.515 47.9392 198.515 47.7502C196.737 47.7502 195.036 47.7502 193.259 47.7502C193.259 47.977 193.259 48.1661 193.259 48.393C193.259 54.0648 193.259 59.6988 193.259 65.3707C193.259 65.9001 193.221 66.4673 193.145 66.9966C192.994 67.8663 192.54 68.5091 191.67 68.7738C190.045 69.2654 188.721 68.7738 187.776 67.3747C187.549 66.9966 187.322 66.6185 187.057 66.2404C185.583 67.1101 184.184 67.9419 182.747 68.8116Z" fill="white"/>
<path d="M269.2 67.2984L282.136 63.7816L283.88 44.8032H260.873L260.302 38.492H284.454L285.09 32.3012H253.31L255.091 50.9996H276.987L276.256 59.0244L269.2 60.892L262.144 59.0244L261.702 53.8612H255.346L256.267 63.7844L269.2 67.2984ZM244 22H294.4L289.856 72.4L269.2 78L248.544 72.4L244 22Z" fill="white"/>
<path d="M317.004 22.0099C317.004 22.227 316.995 22.375 317.004 22.523C317.38 26.628 317.755 30.7329 318.12 34.8478C318.634 40.6698 319.138 46.4917 319.651 52.3038C320.234 58.8362 320.826 65.3588 321.389 71.8913C321.429 72.3649 321.597 72.5721 322.041 72.6905C328.362 74.4273 334.663 76.1739 340.983 77.9007C341.408 78.0191 341.922 78.0388 342.346 77.9204C348.687 76.1837 355.017 74.4174 361.358 72.6708C361.842 72.5327 362.01 72.3156 362.049 71.8222C362.247 69.3553 362.484 66.8785 362.701 64.4115C363.066 60.3263 363.422 56.241 363.787 52.1558C364.212 47.3601 364.647 42.5742 365.071 37.7785C365.387 34.2064 365.723 30.6441 366.039 27.072C366.187 25.3945 366.316 23.717 366.454 22H317.004V22.0099ZM356.914 36.2589C356.588 39.8705 356.262 43.4919 355.936 47.1035C355.561 51.2578 355.185 55.4121 354.81 59.5566C354.701 60.7506 354.543 61.9446 354.514 63.1484C354.494 63.7898 354.217 63.9576 353.684 64.1056C349.872 65.1319 346.07 66.1877 342.267 67.2337C342.099 67.283 341.941 67.3422 341.774 67.3916C341.714 67.362 341.655 67.3422 341.586 67.3126C337.517 66.2074 333.448 65.0924 329.379 63.9675C329.211 63.9181 328.994 63.6517 328.974 63.4642C328.688 60.3855 328.431 57.3067 328.154 54.1688H334.367C334.475 55.4023 334.594 56.6555 334.692 57.9185C334.781 59.0829 334.771 59.0829 335.868 59.379C337.833 59.902 339.808 60.4151 341.774 60.9282L341.754 60.8789C343.907 60.3065 346.06 59.7441 348.213 59.1323C348.41 59.0731 348.637 58.7573 348.667 58.5402C348.795 57.5929 348.865 56.6357 348.944 55.6884C349.072 54.1589 349.2 52.6294 349.339 51.0309H341.754L341.774 50.9914C341.724 50.9914 341.665 50.9914 341.616 50.9914H327.868C327.68 48.9488 327.503 46.9259 327.315 44.8438H341.625C341.675 44.8438 341.734 44.8438 341.783 44.8438L341.764 44.8043H349.892C350.079 42.6828 350.267 40.6105 350.455 38.4988H341.754L341.774 38.4594C341.724 38.4594 341.665 38.4594 341.616 38.4594C336.747 38.4692 331.878 38.4692 327.009 38.4791C326.94 38.4791 326.871 38.4495 326.742 38.41C326.564 36.397 326.377 34.384 326.199 32.3118H341.616C341.665 32.3118 341.724 32.3118 341.774 32.3118L341.754 32.2723H357.24C357.131 33.6538 357.022 34.9563 356.914 36.2589Z" fill="white"/>
<path d="M396.368 58.5605L401.904 23.0857C402.095 21.8767 403.718 21.5903 404.29 22.6721L410.24 33.8077L396.368 58.5605ZM435.724 67.1826L430.443 34.5076C430.284 33.4895 429.011 33.0759 428.279 33.8077L395 67.1826L413.421 77.5228C414.567 78.1591 415.999 78.1591 417.144 77.5228L435.724 67.1826ZM420.771 38.6755L416.508 30.5624C416.03 29.6398 414.726 29.6398 414.249 30.5624L395.509 63.9692L420.771 38.6755Z" fill="white"/>
<path d="M514.949 47.5334L490.467 23.0506C489.066 21.6498 486.751 21.6498 485.351 23.0506L480.296 28.1055L486.751 34.5612C488.274 34.074 489.979 34.3785 491.136 35.5965C492.355 36.8146 492.659 38.5198 492.172 40.0424L498.384 46.2545C499.906 45.7673 501.612 46.0718 502.83 47.2898C504.535 48.9342 504.535 51.6748 502.83 53.3801C501.125 55.0854 498.445 55.0854 496.74 53.3801C495.461 52.1011 495.156 50.2741 495.826 48.6906L490.04 42.9048V58.1305C490.467 58.3132 490.832 58.6177 491.197 58.9222C492.903 60.5666 492.903 63.3072 491.197 65.0125C489.492 66.6569 486.812 66.6569 485.107 65.0125C483.402 63.3072 483.402 60.6275 485.107 58.9222C485.533 58.4959 486.021 58.1914 486.508 58.0087V42.6003C486.021 42.4176 485.533 42.0522 485.107 41.6868C483.828 40.4078 483.524 38.5808 484.194 36.9973L477.799 30.6634L461.051 47.4116C459.65 48.8124 459.65 51.1267 461.051 52.5275L485.473 76.9494C486.873 78.3502 489.188 78.3502 490.588 76.9494L514.889 52.6493C516.35 51.1876 516.35 48.9342 514.949 47.5334Z" fill="white"/>
<path d="M554.357 73.2323C550.643 72.1709 547.376 70.2166 544.523 67.4874C543.628 67.8075 542.716 68.1276 541.787 68.4308C541.356 68.5656 540.925 68.515 540.477 68.3466C539.681 68.0433 539.2 67.4537 538.852 66.7292C538.371 65.769 537.758 64.8929 537.277 63.9326C536.846 63.0397 536.215 62.2647 535.851 61.3381C535.668 60.8833 535.187 60.58 535.187 60.0072C534.756 59.2996 535.171 58.6763 535.419 58.0529C535.486 57.8845 535.569 57.6655 535.718 57.5981C536.315 57.3285 536.613 56.722 537.111 56.3514C537.343 56.1829 537.592 55.9976 537.857 55.7954C537.476 53.858 537.144 51.9206 537.144 49.9326C537.144 47.9615 537.492 46.0578 537.857 44.1709C537.21 43.5644 536.613 42.9747 535.983 42.4188C535.337 41.846 534.955 41.1384 535.038 40.3971C535.088 39.9928 535.204 39.5548 535.403 39.2178C536.016 38.2238 536.58 37.1793 537.177 36.1685C537.658 35.3598 538.073 34.5174 538.603 33.7256C538.885 33.3213 539.051 32.8496 539.333 32.4284C539.88 31.6366 540.975 31.2491 541.87 31.5187C542.666 31.7545 543.412 32.1083 544.225 32.2599C544.308 32.2768 544.374 32.3947 544.457 32.4789C547.326 29.7665 550.593 27.8291 554.341 26.7004C554.49 26.2455 554.523 25.7569 554.705 25.2852C554.838 24.9314 554.805 24.4934 554.871 24.1059C555.054 23.0951 555.667 22.5054 556.546 22.2022C556.861 22.1011 557.176 22 557.558 22C559.879 22.0337 562.201 22.0337 564.522 22C565.186 22 565.75 22.2696 566.28 22.5728C566.761 22.8255 567.026 23.3646 567.159 23.87C567.391 24.7966 567.524 25.7401 567.706 26.7172C571.437 27.7954 574.704 29.7329 577.557 32.4621C578.452 32.142 579.364 31.8219 580.293 31.5187C580.724 31.3839 581.155 31.4344 581.603 31.6029C582.399 31.9061 582.88 32.4958 583.228 33.2202C583.709 34.1805 584.322 35.0566 584.803 36.0168C585.234 36.9097 585.865 37.6847 586.229 38.6113C586.412 39.0662 586.893 39.3694 586.893 39.9422C587.324 40.6498 586.909 41.2732 586.661 41.8965C586.594 42.065 586.511 42.284 586.362 42.3514C585.765 42.6209 585.467 43.2274 584.969 43.5981C584.737 43.7665 584.488 43.9519 584.223 44.154C584.604 46.0915 584.936 48.0289 584.936 50.0168C584.936 51.988 584.637 53.8917 584.223 55.7786C584.87 56.3851 585.467 56.9747 586.097 57.5307C586.743 58.1035 587.125 58.8111 587.042 59.5523C586.992 59.9567 586.893 60.3947 586.677 60.7316C586.08 61.7088 585.516 62.7196 584.936 63.7136C584.206 64.9434 583.609 66.2744 582.764 67.4368C582.614 68.077 582.017 68.1276 581.586 68.3634C581.122 68.6161 580.658 68.5487 580.143 68.3971C579.381 68.1781 578.651 67.7906 577.855 67.6895C577.772 67.6727 577.706 67.5548 577.623 67.4705C574.754 70.2166 571.504 72.1709 567.706 73.2659C567.524 74.1757 567.358 75.1191 567.159 76.0457C566.96 76.9555 566.363 77.5283 565.517 77.7978C565.202 77.8989 564.871 78 564.506 78C562.184 77.9663 559.863 77.9663 557.541 78C556.878 78 556.314 77.7304 555.783 77.4272C555.302 77.1745 555.02 76.6354 554.921 76.13C554.739 75.136 554.556 74.2094 554.357 73.2323ZM555.435 58.3899C555.767 58.2046 556.148 58.0866 556.165 57.6823C556.198 57.0758 556.281 56.4525 556.148 55.8797C555.916 54.9025 555.501 53.9591 555.253 52.9819C555.087 52.3586 554.722 51.769 554.739 51.0951C554.208 49.7641 553.876 48.3658 553.428 47.0181C553.064 45.9061 552.798 44.7605 552.4 43.6655C552.185 43.059 552.135 42.3851 551.737 41.846C551.704 41.7954 551.687 41.7617 551.687 41.7617C551.24 41.4585 550.775 41.5596 550.377 41.5596C550.145 41.7786 549.946 41.9639 549.764 42.1324C549.747 42.6715 549.366 43.0927 549.432 43.6149C548.852 44.929 548.603 46.3442 548.122 47.6919C547.873 48.3827 547.724 49.0903 547.525 49.7978C547.343 50.5054 546.945 51.1456 546.945 51.9037C546.314 53.3357 545.999 54.8688 545.535 56.3682C545.419 56.7389 545.353 57.0927 545.585 57.4464C545.651 57.5475 545.618 57.6992 545.618 57.6823C545.883 57.9687 546.082 58.1709 546.248 58.373C546.563 58.373 546.895 58.373 547.243 58.373C547.475 58.0698 547.707 57.7834 547.923 57.497C547.873 56.5367 548.072 55.8965 548.503 54.8688C550.128 54.8688 551.754 54.8688 553.379 54.8688C553.511 55.4079 553.578 55.9302 553.76 56.4188C553.843 56.6209 553.926 56.8231 553.893 57.0253C553.843 57.6486 554.042 58.1372 554.739 58.373C554.904 58.3899 555.153 58.3899 555.435 58.3899ZM559.315 58.3899C559.763 58.3562 560.277 58.491 560.642 58.1203C560.775 57.9519 560.891 57.7834 561.057 57.5475C561.057 55.8628 561.057 54.0939 561.057 52.3249C562.267 52.3249 563.461 52.2744 564.638 52.3418C565.352 52.3755 565.932 52.1564 566.496 51.8026C566.761 51.6342 566.993 51.3815 567.225 51.1456C567.839 50.5391 568.137 49.7978 568.154 48.9218C568.154 47.5403 568.154 46.1757 568.154 44.7942C568.154 44.5921 568.104 44.373 568.055 44.1709C567.872 43.4464 567.491 42.9073 566.977 42.4356C566.38 41.8797 565.683 41.5427 564.854 41.5427C562.997 41.5427 561.156 41.5427 559.282 41.5427C559.1 41.7449 558.917 41.9471 558.702 42.1492C558.702 47.3381 558.702 52.5608 558.702 57.8002C558.917 57.9856 559.116 58.1877 559.315 58.3899ZM571.255 58.3899C572.399 58.3899 573.56 58.3899 574.704 58.3899C574.903 58.1877 575.102 57.9856 575.301 57.8002C575.301 57.4801 575.301 57.1769 575.301 56.8568C575.301 56.8231 575.301 56.8063 575.301 56.7894C575.053 56.3177 574.671 56.0313 574.174 55.9807C574.174 51.9543 574.174 47.9446 574.174 44.0193C574.538 43.8339 574.854 43.6655 575.218 43.4633C575.268 43.0253 575.301 42.5704 575.334 42.2503C575.069 41.9471 574.887 41.728 574.737 41.5596C573.543 41.5596 572.383 41.5596 571.355 41.5596C571.073 41.8123 570.874 41.9976 570.625 42.2335C570.675 42.6378 570.741 43.0927 570.791 43.4801C571.189 43.6823 571.504 43.8508 571.786 44.0024C571.786 48.012 571.786 52.0217 571.786 55.9976C571.62 56.0313 571.437 55.9976 571.371 56.0818C571.139 56.3177 570.741 56.3851 570.658 56.7726C570.658 57.1095 570.658 57.4464 570.658 57.7834C570.857 57.9856 571.056 58.1877 571.255 58.3899Z" fill="white"/>
<path d="M552.509 52.2921C551.53 52.3258 550.502 52.3426 549.474 52.3763C549.441 52.3763 549.391 52.4437 549.292 52.528C549.308 51.4834 549.888 50.6411 549.955 49.6808C550.452 48.8384 550.502 47.8444 550.834 46.901C550.933 47.0021 551.082 47.1032 551.082 47.1874C551.099 47.9118 551.514 48.5352 551.646 49.2259C551.746 49.6976 552.011 50.1525 552.077 50.6242C552.144 51.2307 552.542 51.6856 552.509 52.2921Z" fill="white"/>
<path d="M565.851 49.0222C565.735 49.2075 565.635 49.3929 565.503 49.5613C565.271 49.8309 564.972 49.9825 564.591 49.9657C563.43 49.9488 562.269 49.9657 561.075 49.9657C561.075 47.9608 561.075 45.956 561.075 43.9007C562.286 43.9007 563.529 43.8838 564.757 43.9007C565.337 43.9175 565.834 44.524 565.851 45.1642C565.851 46.2256 565.851 47.287 565.851 48.3483C565.851 48.5842 565.851 48.8032 565.851 49.0222Z" fill="white"/>
<path fill-rule="evenodd" clip-rule="evenodd" d="M660.799 37.769L655.836 44.7081L650.873 37.769H653.579C653.373 32.6132 649.114 28.4886 643.909 28.4886C639.516 28.4886 635.791 31.4365 634.614 35.452C633.182 34.991 631.702 34.6998 630.197 34.5664C630.367 33.9234 630.586 33.2804 630.852 32.6618C631.568 30.9755 632.588 29.4591 633.886 28.161C635.184 26.863 636.701 25.8318 638.388 25.1282C640.135 24.3761 641.991 24 643.909 24C645.826 24 647.682 24.3761 649.43 25.1161C651.116 25.8318 652.633 26.8509 653.931 28.1489C655.23 29.447 656.249 30.9634 656.965 32.6496C657.656 34.2752 658.033 35.9979 658.069 37.769H660.799Z" fill="white"/>
<path fill-rule="evenodd" clip-rule="evenodd" d="M653.868 76.4091V73.4248H636.759C636.881 73.3642 637.002 73.3157 637.123 73.255C638.98 72.3694 640.691 71.2169 642.22 69.8097C642.426 69.6156 642.62 69.4336 642.802 69.2517C643.008 69.0454 643.227 68.8271 643.433 68.5966C643.676 68.3297 643.918 68.0507 644.137 67.7717H653.868V64.7874L661.998 70.5982L653.868 76.4091Z" fill="white"/>
<path fill-rule="evenodd" clip-rule="evenodd" d="M647.559 54.8508C647.559 57.4347 647.049 59.9459 646.054 62.3115C645.205 64.3253 644.016 66.1693 642.535 67.7827C642.341 67.989 642.147 68.1952 641.953 68.4014C641.771 68.5834 641.589 68.7532 641.407 68.9352C639.975 70.2575 638.373 71.3372 636.626 72.1743C636.383 72.2956 636.129 72.4048 635.874 72.514C635.862 72.514 635.862 72.5261 635.849 72.5261C634.393 73.1448 632.828 73.4481 631.239 73.4481H606V67.807H629.431C636.517 67.807 642.329 62.1417 642.426 55.057C642.426 54.9963 642.426 54.9357 642.426 54.875C642.426 47.1353 636.141 40.8512 628.399 40.8512C620.658 40.827 614.372 47.0989 614.372 54.8508H617.624L611.812 62.9787L606 54.8508H609.252C609.252 52.2668 609.762 49.7556 610.757 47.39C611.727 45.1093 613.098 43.0591 614.858 41.3001C616.617 39.5411 618.668 38.1581 620.949 37.1997C623.315 36.2049 625.827 35.6954 628.411 35.6954C628.933 35.6954 629.443 35.7197 629.952 35.7561C631.457 35.8774 632.925 36.1686 634.357 36.6417C634.867 36.8115 635.364 36.9935 635.862 37.2118C638.143 38.1824 640.193 39.5532 641.953 41.3122C643.712 43.0713 645.096 45.1215 646.054 47.4021C647.049 49.7556 647.559 52.2668 647.559 54.8508Z" fill="white"/>
<g clip-path="url(#clip0_3296_3825)">
<path d="M686.373 31.1466V68.9466C681.8 63.9066 679 57.2799 679 49.9999C679 42.7199 681.8 36.0933 686.373 31.1466Z" fill="white"/>
<path d="M689.36 35.2533L705.507 67.64H689.36V35.2533Z" fill="white"/>
<path d="M707 64L691.133 32.36H722.867L707 64Z" fill="white"/>
<path d="M707 22C714.28 22 720.906 24.8 725.853 29.3733H688.146C693.093 24.8 699.72 22 707 22Z" fill="white"/>
<path d="M724.64 67.64H708.493L724.64 35.2533V67.64Z" fill="white"/>
<path d="M725.853 70.6267C720.906 75.2 714.28 78 707 78C699.72 78 693.093 75.2 688.146 70.6267H725.853Z" fill="white"/>
<path d="M727.626 68.8533V31.1466C732.2 36.0933 735 42.7199 735 49.9999C735 57.2799 732.2 63.9066 727.626 68.8533Z" fill="white"/>
<path d="M689.36 35.2533L705.507 67.64H689.36V35.2533Z" fill="white"/>
<path d="M707 64L691.133 32.36H722.867L707 64Z" fill="white"/>
<path d="M708.493 67.64L724.64 35.2533V67.64H708.493Z" fill="white"/>
<path d="M691.133 32.36H722.867L707 64L691.133 32.36Z" fill="white"/>
</g>
<path d="M808 25.7505L779.999 74.2496L752 25.7505H763.2L779.999 54.8491L796.8 25.7505H808Z" fill="white"/>
<path d="M794.331 25.7505L779.999 50.5702L765.669 25.7505H773.534L779.999 36.9505L786.467 25.7505H794.331Z" fill="white"/>
<g clip-path="url(#clip1_3296_3825)">
<path d="M871.507 45.5335L853.574 55.7481C853.251 55.9379 852.853 55.9379 852.52 55.7481L834.588 45.5335C833.885 45.1347 833.885 44.119 834.588 43.7108L852.52 33.4962C852.843 33.3063 853.242 33.3063 853.574 33.4962L871.507 43.7108C872.209 44.1095 872.209 45.1252 871.507 45.5335Z" fill="#3DCFB6"/>
<path d="M868.403 48.97V57.3904C868.403 57.7701 868.203 58.1119 867.871 58.3017L853.574 66.4468C853.252 66.6367 852.853 66.6367 852.521 66.4468L838.224 58.3017C837.892 58.1119 837.692 57.7701 837.692 57.3904V48.97L845.619 53.4792L852.521 57.4189C852.843 57.6087 853.242 57.6087 853.574 57.4189L860.476 53.4792L868.403 48.97Z" fill="#3DCFB6"/>
<path d="M876.757 35.072L877.25 34.7302C877.848 34.3125 877.772 33.4107 877.117 33.0974L873.187 31.2273C872.523 30.914 871.773 31.4361 871.83 32.1671L872.209 36.5055C872.276 37.2269 873.102 37.6161 873.7 37.1985L874.402 36.7143C880.649 46.777 878.968 60.1813 870.235 68.3454C861.643 76.3766 848.401 77.3544 838.746 70.6712C838.101 70.2251 837.208 70.3864 836.762 71.032C836.316 71.6775 836.477 72.5699 837.123 73.016C841.898 76.3197 847.451 77.943 852.995 77.943C859.935 77.943 866.855 75.3988 872.181 70.4244C881.93 61.3015 883.81 46.2929 876.757 35.072Z" fill="#3DCFB6"/>
<path d="M868.972 26.927C858.226 19.4844 843.483 20.5761 833.914 29.5186C823.918 38.8693 822.124 53.8115 829.576 65.2223L828.883 65.6969C828.285 66.1146 828.361 67.0165 829.016 67.3298L832.946 69.1999C833.61 69.5132 834.36 68.9911 834.303 68.2601L833.924 63.9217C833.857 63.2002 833.031 62.811 832.433 63.2287L831.921 63.5895C825.294 53.3464 826.899 39.9705 835.86 31.5976C844.452 23.5664 857.694 22.5791 867.349 29.2718C867.995 29.718 868.887 29.5566 869.333 28.911C869.779 28.2655 869.618 27.3732 868.972 26.927Z" fill="#3DCFB6"/>
</g>
<defs>
<clipPath id="clip0_3296_3825">
<rect width="56" height="56" fill="white" transform="translate(679 22)"/>
</clipPath>
<clipPath id="clip1_3296_3825">
<rect width="56" height="55.943" fill="white" transform="translate(825 22)"/>
</clipPath>
</defs>
</svg>
