<svg width="104" height="116" viewBox="0 0 104 116" fill="none" xmlns="http://www.w3.org/2000/svg">
<g clip-path="url(#clip0_3296_3821)">
<path d="M52.0426 2.1333L79.8186 12.049L75.5835 48.8149L52.0426 61.8666L28.5017 48.8149L24.2666 12.049L52.0426 2.1333ZM52.0426 8.73383L34.6781 47.7098H41.1532L44.6446 38.9888H59.3808L62.8752 47.7098H69.3474L52.0426 8.73383ZM57.114 33.6128H46.9712L52.0426 21.3973L57.114 33.6128Z" fill="white"/>
</g>
<path d="M20.2671 76.607L20.9691 89H19.4661L19.0791 82.529C19.0611 82.091 19.0431 81.647 19.0251 81.197C19.0071 80.747 18.9951 80.315 18.9891 79.901C18.9831 79.487 18.9801 79.118 18.9801 78.794C18.9801 78.47 18.9801 78.218 18.9801 78.038L16.8921 86.777H15.3261L13.0851 78.038C13.0911 78.212 13.0971 78.47 13.1031 78.812C13.1091 79.148 13.1121 79.529 13.1121 79.955C13.1181 80.381 13.1151 80.819 13.1031 81.269C13.0971 81.713 13.0851 82.127 13.0671 82.511L12.7341 89H11.2671L11.9691 76.607H14.1471L16.1541 85.094L18.0711 76.607H20.2671ZM29.5661 86.93C29.5661 87.308 29.6291 87.584 29.7551 87.758C29.8811 87.932 30.0761 88.061 30.3401 88.145L29.9711 89.207C29.5631 89.153 29.2061 89.024 28.9001 88.82C28.5941 88.61 28.3721 88.295 28.2341 87.875C27.8921 88.313 27.4661 88.646 26.9561 88.874C26.4461 89.096 25.8821 89.207 25.2641 89.207C24.3161 89.207 23.5691 88.94 23.0231 88.406C22.4771 87.872 22.2041 87.164 22.2041 86.282C22.2041 85.304 22.5851 84.554 23.3471 84.032C24.1091 83.51 25.2101 83.249 26.6501 83.249H28.0451V82.457C28.0451 81.773 27.8441 81.29 27.4421 81.008C27.0461 80.72 26.4941 80.576 25.7861 80.576C25.4741 80.576 25.1081 80.615 24.6881 80.693C24.2681 80.765 23.8121 80.888 23.3201 81.062L22.9241 79.919C23.5061 79.703 24.0521 79.55 24.5621 79.46C25.0721 79.37 25.5581 79.325 26.0201 79.325C27.2021 79.325 28.0871 79.601 28.6751 80.153C29.2691 80.699 29.5661 81.443 29.5661 82.385V86.93ZM25.6511 88.055C26.1191 88.055 26.5661 87.938 26.9921 87.704C27.4181 87.464 27.7691 87.134 28.0451 86.714V84.275H26.6771C25.6331 84.275 24.8951 84.455 24.4631 84.815C24.0371 85.175 23.8241 85.658 23.8241 86.264C23.8241 86.852 23.9741 87.299 24.2741 87.605C24.5801 87.905 25.0391 88.055 25.6511 88.055ZM40.5571 88.523C40.2331 88.739 39.8401 88.907 39.3781 89.027C38.9161 89.147 38.4631 89.207 38.0191 89.207C36.9991 89.207 36.2131 88.94 35.6611 88.406C35.1091 87.872 34.8331 87.185 34.8331 86.345V80.693H32.6551V79.523H34.8331V77.372L36.3451 77.192V79.523H39.6211L39.4411 80.693H36.3451V86.327C36.3451 86.855 36.4831 87.257 36.7591 87.533C37.0411 87.809 37.5061 87.947 38.1541 87.947C38.5081 87.947 38.8351 87.905 39.1351 87.821C39.4351 87.737 39.7141 87.629 39.9721 87.497L40.5571 88.523ZM44.474 84.797C44.504 85.529 44.645 86.129 44.897 86.597C45.149 87.059 45.482 87.401 45.896 87.623C46.31 87.839 46.76 87.947 47.246 87.947C47.732 87.947 48.17 87.875 48.56 87.731C48.956 87.587 49.361 87.374 49.775 87.092L50.486 88.091C50.042 88.439 49.535 88.712 48.965 88.91C48.401 89.108 47.822 89.207 47.228 89.207C46.31 89.207 45.527 89 44.879 88.586C44.231 88.172 43.736 87.596 43.394 86.858C43.058 86.114 42.89 85.253 42.89 84.275C42.89 83.315 43.061 82.463 43.403 81.719C43.745 80.975 44.225 80.39 44.843 79.964C45.461 79.538 46.19 79.325 47.03 79.325C47.828 79.325 48.515 79.514 49.091 79.892C49.667 80.264 50.108 80.798 50.414 81.494C50.726 82.184 50.882 83.009 50.882 83.969C50.882 84.131 50.879 84.284 50.873 84.428C50.867 84.566 50.858 84.689 50.846 84.797H44.474ZM47.048 80.567C46.346 80.567 45.758 80.816 45.284 81.314C44.816 81.812 44.549 82.583 44.483 83.627H49.424C49.406 82.613 49.184 81.851 48.758 81.341C48.332 80.825 47.762 80.567 47.048 80.567ZM53.629 89V87.839H55.105V80.684H53.629V79.523H56.257L56.536 81.764C56.902 80.984 57.346 80.381 57.868 79.955C58.39 79.529 59.08 79.316 59.938 79.316C60.202 79.316 60.436 79.337 60.64 79.379C60.85 79.415 61.063 79.463 61.279 79.523L60.838 80.873C60.64 80.819 60.46 80.78 60.298 80.756C60.136 80.726 59.95 80.711 59.74 80.711C59.014 80.711 58.39 80.969 57.868 81.485C57.346 82.001 56.929 82.781 56.617 83.825V87.839H58.543V89H53.629ZM59.821 82.727V80.666L59.974 79.523H61.279L61.063 82.727H59.821ZM68.589 79.523V87.803H71.262V89H64.152V87.803H67.077V80.72H64.242V79.523H68.589ZM67.383 75.086C67.719 75.086 67.986 75.188 68.184 75.392C68.388 75.596 68.49 75.845 68.49 76.139C68.49 76.445 68.388 76.703 68.184 76.913C67.986 77.117 67.719 77.219 67.383 77.219C67.065 77.219 66.804 77.117 66.6 76.913C66.396 76.703 66.294 76.445 66.294 76.139C66.294 75.845 66.396 75.596 66.6 75.392C66.804 75.188 67.065 75.086 67.383 75.086ZM80.8309 86.93C80.8309 87.308 80.8939 87.584 81.0199 87.758C81.1459 87.932 81.3409 88.061 81.6049 88.145L81.2359 89.207C80.8279 89.153 80.4709 89.024 80.1649 88.82C79.8589 88.61 79.6369 88.295 79.4989 87.875C79.1569 88.313 78.7309 88.646 78.2209 88.874C77.7109 89.096 77.1469 89.207 76.5289 89.207C75.5809 89.207 74.8339 88.94 74.2879 88.406C73.7419 87.872 73.4689 87.164 73.4689 86.282C73.4689 85.304 73.8499 84.554 74.6119 84.032C75.3739 83.51 76.4749 83.249 77.9149 83.249H79.3099V82.457C79.3099 81.773 79.1089 81.29 78.7069 81.008C78.3109 80.72 77.7589 80.576 77.0509 80.576C76.7389 80.576 76.3729 80.615 75.9529 80.693C75.5329 80.765 75.0769 80.888 74.5849 81.062L74.1889 79.919C74.7709 79.703 75.3169 79.55 75.8269 79.46C76.3369 79.37 76.8229 79.325 77.2849 79.325C78.4669 79.325 79.3519 79.601 79.9399 80.153C80.5339 80.699 80.8309 81.443 80.8309 82.385V86.93ZM76.9159 88.055C77.3839 88.055 77.8309 87.938 78.2569 87.704C78.6829 87.464 79.0339 87.134 79.3099 86.714V84.275H77.9419C76.8979 84.275 76.1599 84.455 75.7279 84.815C75.3019 85.175 75.0889 85.658 75.0889 86.264C75.0889 86.852 75.2389 87.299 75.5389 87.605C75.8449 87.905 76.3039 88.055 76.9159 88.055ZM87.9879 75.707V86.66C87.9879 87.128 88.1319 87.461 88.4199 87.659C88.7139 87.851 89.0919 87.947 89.5539 87.947C89.8419 87.947 90.1149 87.917 90.3729 87.857C90.6309 87.797 90.8889 87.716 91.1469 87.614L91.5519 88.721C91.2939 88.847 90.9729 88.958 90.5889 89.054C90.2109 89.156 89.7819 89.207 89.3019 89.207C88.4619 89.207 87.7809 88.976 87.2589 88.514C86.7369 88.046 86.4759 87.401 86.4759 86.579V76.904H83.5689V75.707H87.9879ZM29.2511 104.745C29.2511 103.665 29.1371 102.801 28.9091 102.153C28.6811 101.505 28.3811 101.019 28.0091 100.695C27.6371 100.371 27.2291 100.155 26.7851 100.047C26.3471 99.939 25.9151 99.885 25.4891 99.885H24.0311V109.749H25.5071C25.9511 109.749 26.3921 109.68 26.8301 109.542C27.2741 109.398 27.6791 109.146 28.0451 108.786C28.4111 108.42 28.7021 107.913 28.9181 107.265C29.1401 106.611 29.2511 105.771 29.2511 104.745ZM30.9161 104.745C30.9161 105.777 30.8051 106.659 30.5831 107.391C30.3671 108.117 30.0701 108.717 29.6921 109.191C29.3141 109.665 28.8821 110.034 28.3961 110.298C27.9161 110.556 27.4091 110.739 26.8751 110.847C26.3471 110.949 25.8281 111 25.3181 111H22.4741V98.607H25.1201C25.8461 98.607 26.5511 98.688 27.2351 98.85C27.9251 99.012 28.5461 99.312 29.0981 99.75C29.6561 100.182 30.0971 100.8 30.4211 101.604C30.7511 102.408 30.9161 103.455 30.9161 104.745ZM34.2211 106.797C34.2511 107.529 34.3921 108.129 34.6441 108.597C34.8961 109.059 35.2291 109.401 35.6431 109.623C36.0571 109.839 36.5071 109.947 36.9931 109.947C37.4791 109.947 37.9171 109.875 38.3071 109.731C38.7031 109.587 39.1081 109.374 39.5221 109.092L40.2331 110.091C39.7891 110.439 39.2821 110.712 38.7121 110.91C38.1481 111.108 37.5691 111.207 36.9751 111.207C36.0571 111.207 35.2741 111 34.6261 110.586C33.9781 110.172 33.4831 109.596 33.1411 108.858C32.8051 108.114 32.6371 107.253 32.6371 106.275C32.6371 105.315 32.8081 104.463 33.1501 103.719C33.4921 102.975 33.9721 102.39 34.5901 101.964C35.2081 101.538 35.9371 101.325 36.7771 101.325C37.5751 101.325 38.2621 101.514 38.8381 101.892C39.4141 102.264 39.8551 102.798 40.1611 103.494C40.4731 104.184 40.6291 105.009 40.6291 105.969C40.6291 106.131 40.6261 106.284 40.6201 106.428C40.6141 106.566 40.6051 106.689 40.5931 106.797H34.2211ZM36.7951 102.567C36.0931 102.567 35.5051 102.816 35.0311 103.314C34.5631 103.812 34.2961 104.583 34.2301 105.627H39.1711C39.1531 104.613 38.9311 103.851 38.5051 103.341C38.0791 102.825 37.5091 102.567 36.7951 102.567ZM46.508 109.956C47.234 109.956 47.807 109.821 48.227 109.551C48.653 109.275 48.866 108.909 48.866 108.453C48.866 108.165 48.812 107.916 48.704 107.706C48.602 107.496 48.389 107.307 48.065 107.139C47.741 106.971 47.243 106.803 46.571 106.635C45.917 106.473 45.347 106.287 44.861 106.077C44.381 105.861 44.006 105.582 43.736 105.24C43.472 104.898 43.34 104.454 43.34 103.908C43.34 103.374 43.49 102.915 43.79 102.531C44.096 102.141 44.519 101.844 45.059 101.64C45.599 101.43 46.226 101.325 46.94 101.325C47.702 101.325 48.365 101.427 48.929 101.631C49.499 101.829 49.982 102.075 50.378 102.369L49.712 103.395C49.352 103.149 48.956 102.948 48.524 102.792C48.092 102.63 47.57 102.549 46.958 102.549C46.214 102.549 45.686 102.666 45.374 102.9C45.062 103.128 44.906 103.425 44.906 103.791C44.906 104.067 44.981 104.298 45.131 104.484C45.287 104.664 45.548 104.829 45.914 104.979C46.28 105.123 46.784 105.282 47.426 105.456C48.044 105.618 48.581 105.813 49.037 106.041C49.499 106.269 49.859 106.569 50.117 106.941C50.375 107.313 50.504 107.793 50.504 108.381C50.504 109.053 50.312 109.599 49.928 110.019C49.544 110.433 49.046 110.736 48.434 110.928C47.828 111.114 47.186 111.207 46.508 111.207C45.65 111.207 44.918 111.084 44.312 110.838C43.712 110.586 43.208 110.283 42.8 109.929L43.664 108.93C44.036 109.236 44.462 109.485 44.942 109.677C45.428 109.863 45.95 109.956 46.508 109.956ZM58.336 101.523V109.803H61.009V111H53.899V109.803H56.824V102.72H53.989V101.523H58.336ZM57.13 97.086C57.466 97.086 57.733 97.188 57.931 97.392C58.135 97.596 58.237 97.845 58.237 98.139C58.237 98.445 58.135 98.703 57.931 98.913C57.733 99.117 57.466 99.219 57.13 99.219C56.812 99.219 56.551 99.117 56.347 98.913C56.143 98.703 56.041 98.445 56.041 98.139C56.041 97.845 56.143 97.596 56.347 97.392C56.551 97.188 56.812 97.086 57.13 97.086ZM71.496 100.515L71.964 101.937C71.562 102.063 71.133 102.141 70.677 102.171C70.221 102.201 69.726 102.216 69.192 102.216C69.738 102.468 70.149 102.795 70.425 103.197C70.701 103.593 70.839 104.061 70.839 104.601C70.839 105.225 70.698 105.78 70.416 106.266C70.134 106.752 69.726 107.133 69.192 107.409C68.664 107.685 68.025 107.823 67.275 107.823C66.957 107.823 66.69 107.808 66.474 107.778C66.264 107.748 66.06 107.703 65.862 107.643C65.718 107.739 65.598 107.871 65.502 108.039C65.412 108.207 65.367 108.381 65.367 108.561C65.367 108.789 65.457 108.978 65.637 109.128C65.817 109.278 66.15 109.353 66.636 109.353H68.346C68.982 109.353 69.552 109.467 70.056 109.695C70.566 109.923 70.965 110.229 71.253 110.613C71.547 110.997 71.694 111.435 71.694 111.927C71.694 112.857 71.298 113.571 70.506 114.069C69.72 114.567 68.607 114.816 67.167 114.816C66.159 114.816 65.364 114.711 64.782 114.501C64.2 114.297 63.783 113.982 63.531 113.556C63.285 113.136 63.162 112.605 63.162 111.963H64.53C64.53 112.329 64.602 112.632 64.746 112.872C64.89 113.112 65.151 113.289 65.529 113.403C65.907 113.523 66.45 113.583 67.158 113.583C67.854 113.583 68.421 113.523 68.859 113.403C69.303 113.289 69.63 113.115 69.84 112.881C70.056 112.653 70.164 112.368 70.164 112.026C70.164 111.576 69.96 111.237 69.552 111.009C69.144 110.781 68.634 110.667 68.022 110.667H66.33C65.514 110.667 64.911 110.487 64.521 110.127C64.137 109.767 63.945 109.353 63.945 108.885C63.945 108.579 64.032 108.282 64.206 107.994C64.386 107.706 64.647 107.451 64.989 107.229C64.443 106.941 64.041 106.584 63.783 106.158C63.525 105.732 63.396 105.216 63.396 104.61C63.396 103.968 63.555 103.401 63.873 102.909C64.191 102.411 64.635 102.021 65.205 101.739C65.775 101.457 66.432 101.316 67.176 101.316C67.974 101.31 68.622 101.277 69.12 101.217C69.618 101.151 70.044 101.058 70.398 100.938C70.758 100.818 71.124 100.677 71.496 100.515ZM67.176 102.423C66.414 102.423 65.85 102.63 65.484 103.044C65.124 103.452 64.944 103.974 64.944 104.61C64.944 105.252 65.13 105.78 65.502 106.194C65.874 106.608 66.444 106.815 67.212 106.815C67.884 106.815 68.394 106.62 68.742 106.23C69.096 105.84 69.273 105.297 69.273 104.601C69.273 103.887 69.096 103.347 68.742 102.981C68.394 102.609 67.872 102.423 67.176 102.423ZM74.0449 111V101.523H75.3319L75.4489 102.837C75.8329 102.351 76.3129 101.979 76.8889 101.721C77.4709 101.457 78.0349 101.325 78.5809 101.325C79.5109 101.325 80.1859 101.571 80.6059 102.063C81.0319 102.555 81.2449 103.239 81.2449 104.115V111H79.7329V105.231C79.7329 104.583 79.6969 104.061 79.6249 103.665C79.5529 103.263 79.4029 102.972 79.1749 102.792C78.9469 102.606 78.5929 102.513 78.1129 102.513C77.7409 102.513 77.3899 102.594 77.0599 102.756C76.7359 102.918 76.4449 103.122 76.1869 103.368C75.9349 103.608 75.7249 103.851 75.5569 104.097V111H74.0449Z" fill="white"/>
<defs>
<clipPath id="clip0_3296_3821">
<rect width="64" height="64" fill="white" transform="translate(20)"/>
</clipPath>
</defs>
</svg>
