<svg width="40" height="40" viewBox="0 0 40 40" fill="none" xmlns="http://www.w3.org/2000/svg">
<mask id="mask0_3296_5026" style="mask-type:alpha" maskUnits="userSpaceOnUse" x="0" y="4" width="32" height="32">
<rect y="4" width="32" height="32" fill="#D9D9D9"/>
</mask>
<g mask="url(#mask0_3296_5026)">
<path d="M9.83044 21L16.7228 27.8923C16.921 28.0905 17.0189 28.3225 17.0164 28.5883C17.0138 28.8541 16.9091 29.0904 16.7024 29.2973C16.4956 29.4904 16.2613 29.5904 15.9998 29.5973C15.7382 29.6042 15.504 29.5042 15.2971 29.2973L6.84344 20.8437C6.71855 20.7188 6.63055 20.5871 6.57944 20.4487C6.52811 20.3102 6.50244 20.1607 6.50244 20C6.50244 19.8393 6.52811 19.6898 6.57944 19.5513C6.63055 19.4129 6.71855 19.2812 6.84344 19.1563L15.2971 10.7027C15.4818 10.518 15.7104 10.4235 15.9831 10.4193C16.2558 10.4151 16.4956 10.5095 16.7024 10.7027C16.9091 10.9095 17.0124 11.1471 17.0124 11.4153C17.0124 11.6838 16.9091 11.9214 16.7024 12.1283L9.83044 19H24.9998C25.2836 19 25.5211 19.0958 25.7124 19.2873C25.904 19.4787 25.9998 19.7162 25.9998 20C25.9998 20.2838 25.904 20.5213 25.7124 20.7127C25.5211 20.9042 25.2836 21 24.9998 21H9.83044Z" fill="#3DCFB6"/>
</g>
</svg>
