<svg width="40" height="40" viewBox="0 0 40 40" fill="none" xmlns="http://www.w3.org/2000/svg">
<mask id="mask0_3296_5041" style="mask-type:alpha" maskUnits="userSpaceOnUse" x="8" y="4" width="32" height="32">
<rect x="8" y="4" width="32" height="32" fill="#D9D9D9"/>
</mask>
<g mask="url(#mask0_3296_5041)">
<path d="M30.1693 21H15C14.7162 21 14.4787 20.9042 14.2873 20.7127C14.0958 20.5213 14 20.2838 14 20C14 19.7162 14.0958 19.4787 14.2873 19.2873C14.4787 19.0958 14.7162 19 15 19H30.1693L23.277 12.1077C23.0788 11.9095 22.9809 11.6775 22.9833 11.4117C22.986 11.1459 23.0907 10.9096 23.2973 10.7027C23.5042 10.5096 23.7384 10.4096 24 10.4027C24.2616 10.3958 24.4958 10.4958 24.7027 10.7027L33.1563 19.1563C33.2812 19.2812 33.3692 19.4129 33.4203 19.5513C33.4717 19.6898 33.4973 19.8393 33.4973 20C33.4973 20.1607 33.4717 20.3102 33.4203 20.4487C33.3692 20.5871 33.2812 20.7188 33.1563 20.8437L24.7027 29.2973C24.518 29.482 24.2893 29.5765 24.0167 29.5807C23.744 29.5849 23.5042 29.4905 23.2973 29.2973C23.0907 29.0905 22.9873 28.8529 22.9873 28.5847C22.9873 28.3162 23.0907 28.0786 23.2973 27.8717L30.1693 21Z" fill="#3DCFB6"/>
</g>
</svg>
