<svg width="40" height="40" viewBox="0 0 40 40" fill="none" xmlns="http://www.w3.org/2000/svg">
<mask id="mask0_3296_4978" style="mask-type:alpha" maskUnits="userSpaceOnUse" x="4" y="4" width="32" height="32">
<rect x="4" y="4" width="32" height="32" fill="#D9D9D9"/>
</mask>
<g mask="url(#mask0_3296_4978)">
<path d="M26.7717 20.6667H11.3334C11.1436 20.6667 10.9851 20.603 10.8577 20.4757C10.7304 20.3484 10.6667 20.1898 10.6667 20C10.6667 19.8102 10.7304 19.6517 10.8577 19.5244C10.9851 19.397 11.1436 19.3334 11.3334 19.3334H26.7717L19.5207 12.082C19.3907 11.9522 19.3227 11.7992 19.3167 11.623C19.3107 11.447 19.3813 11.2855 19.5284 11.1384C19.6753 10.9966 19.8325 10.9244 20.0001 10.9217C20.1676 10.9192 20.3249 10.9915 20.4717 11.1384L28.5794 19.246C28.6959 19.3625 28.7775 19.4814 28.8244 19.6027C28.8715 19.724 28.8951 19.8565 28.8951 20C28.8951 20.1436 28.8715 20.276 28.8244 20.3974C28.7775 20.5187 28.6959 20.6376 28.5794 20.754L20.4717 28.8617C20.3471 28.9864 20.1954 29.053 20.0167 29.0617C19.8381 29.0701 19.6753 29.0035 19.5284 28.8617C19.3813 28.7146 19.3077 28.556 19.3077 28.386C19.3077 28.2158 19.3813 28.0572 19.5284 27.9104L26.7717 20.6667Z" fill="white"/>
</g>
</svg>
